<?xml version="1.0" encoding="UTF-8" standalone="no"?>
<svg
   version="1.2"
   viewBox="0 0 643.19 960.83002"
   id="svg14"
   sodipodi:docname="ENVISION_LOGO(1).svg"
   inkscape:version="1.3.2 (091e20ef0f, 2023-11-25)"
   width="643.19"
   height="960.83002"
   xmlns:inkscape="http://www.inkscape.org/namespaces/inkscape"
   xmlns:sodipodi="http://sodipodi.sourceforge.net/DTD/sodipodi-0.dtd"
   xmlns="http://www.w3.org/2000/svg"
   xmlns:svg="http://www.w3.org/2000/svg">
  <defs
     id="defs14" />
  <sodipodi:namedview
     id="namedview14"
     pagecolor="#505050"
     bordercolor="#eeeeee"
     borderopacity="1"
     inkscape:showpageshadow="0"
     inkscape:pageopacity="0"
     inkscape:pagecheckerboard="0"
     inkscape:deskcolor="#505050"
     inkscape:zoom="0.27656978"
     inkscape:cx="-790.03571"
     inkscape:cy="826.19295"
     inkscape:window-width="1920"
     inkscape:window-height="1011"
     inkscape:window-x="0"
     inkscape:window-y="0"
     inkscape:window-maximized="1"
     inkscape:current-layer="svg14" />
  <g
     id="Layer_1"
     data-name="Layer 1"
     inkscape:export-filename="../Documents/esperanza-web/public/assets/envision-logo.svg"
     inkscape:export-xdpi="96"
     inkscape:export-ydpi="96"
     transform="translate(-213.44,-96)">
    <path
       d="m 671,419 c -43.67,23.33 -87.33,46.67 -131,70 -44.33,-23.33 -88.67,-46.67 -133,-70 0.04,-0.04 0.09,-0.08 0.13,-0.12 l -0.72,-0.37 72.78,-64.18 C 487.13,347.22 495.06,340.11 503,333 V 181 c -14.81,-0.05 -29.62,-0.11 -44.43,-0.16 26.81,-28.28 53.62,-56.56 80.43,-84.84 27,28.33 54,56.67 81,85 h -48 v 153 c 33,28.33 66,56.67 99,85 z"
       fill="#272f74"
       stroke-width="0"
       id="path1"
       style="display:inline" />
    <path
       d="m 535.12,890.29 c 0,9.65 -7.83,17.47 -17.48,17.47 -9.65,0 -17.48,-7.82 -17.48,-17.47 0,-9.65 7.83,-17.48 17.48,-17.48 2.46,0 4.81,0.51 6.94,1.43 -2.7,1.43 -4.54,4.27 -4.54,7.54 0,4.7 3.81,8.51 8.51,8.51 2.52,0 4.78,-1.09 6.34,-2.83 0.15,0.92 0.23,1.86 0.23,2.83 z"
       fill="#c4c1ba"
       stroke-width="0"
       id="path2" />
    <path
       d="m 660.1,890.52 c 0,9.65 -7.83,17.47 -17.48,17.47 -9.65,0 -17.48,-7.82 -17.48,-17.47 0,-9.65 7.83,-17.48 17.48,-17.48 2.46,0 4.81,0.51 6.94,1.43 -2.7,1.43 -4.54,4.27 -4.54,7.54 0,4.7 3.81,8.51 8.51,8.51 2.52,0 4.78,-1.09 6.34,-2.83 0.15,0.92 0.23,1.86 0.23,2.83 z"
       fill="#c4c1ba"
       stroke-width="0"
       id="path3" />
    <path
       d="m 540.03,514.99 c 0,0 -0.02,0 -0.03,0.01 -59.17,-30.5 -118.33,-61 -177.5,-91.5 39,-33.67 78,-67.33 117,-101 0.33,-39.33 0.67,-78.67 1,-118 C 403,268.84 325.5,333.19 248,397.53 l -0.05,38.97 -0.06,49 v 0.38 l -0.05,47.62 v 1.66 l -0.06,45.98 v 12.31 c 0,0 -0.06,39.05 -0.06,39.05 v 4.13 l -0.02,13.89 -0.06,49.91 61.24,28.58 1.05,0.49 8.88,4.14 25.78,12.04 76.81,35.84 20.14,9.4 48.88,22.81 27.36,12.77 18.3,8.54 h 0.01 l 2.39,-1.11 v 0 c 0,0 15.91,-7.43 15.91,-7.43 l 28.03,-13.08 55.12,-25.72 13.23,-6.18 83.82,-39.11 23.42,-10.93 4.23,-1.98 3.84,-1.79 65.56,-30.6 0.06,-45.82 0.02,-18.14 v -0.65 l 0.05,-42.49 C 734.35,636.51 636.92,683 539.5,729.5 523.18,721.92 506.86,714.33 490.54,706.75 v 0 c 0,0 -48.88,-22.82 -48.88,-22.82 l -18.1,-8.44 -31.98,-14.93 -46.86,-21.87 v -6.19 l 0.04,-27.28 0.02,-19.35 0.06,-52.37 v -2.37 l 5.09,2.37 50.19,23.43 24.06,11.23 h 0.01 l 17.6,8.21 22.96,10.71 25.92,12.1 48.06,22.43 0.14,0.07 43.8,-20.44 31.17,-14.55 23.95,-11.18 15.77,-7.35 28.47,-13.29 45.78,-21.37 7.03,-3.28 31.17,-14.54 31.63,-14.76 33.03,-15.42 1.22,-0.57 0.06,-48.43 0.05,-38.55 C 753.33,333.63 674.67,269.32 596,205 v 118.84 l 91.72,77.83 5.21,4.42 c 6.86,5.8 13.71,11.6 20.57,17.41 -0.01,0.01 -0.02,0.01 -0.03,0.02 z"
       fill="#c4c1ba"
       stroke-width="0"
       id="path5" />
    <g
       id="g13">
      <path
         d="m 259.49,995.91 c -9.2,0 -17.28,-1.8 -24.23,-5.4 -6.95,-3.6 -12.33,-8.52 -16.12,-14.77 -3.8,-6.25 -5.7,-13.37 -5.7,-21.38 0,-8.01 1.88,-15.27 5.62,-21.53 3.75,-6.25 8.87,-11.15 15.38,-14.7 6.5,-3.55 13.85,-5.33 22.05,-5.33 8.2,0 15.02,1.68 21.38,5.03 6.35,3.35 11.37,8.15 15.07,14.4 3.7,6.25 5.55,13.72 5.55,22.42 0,0.9 -0.05,1.93 -0.15,3.08 -0.1,1.15 -0.2,2.23 -0.3,3.22 H 232.49 V 947.3 h 53.25 l -9,4.05 c 0,-4.2 -0.85,-7.85 -2.55,-10.95 -1.7,-3.1 -4.05,-5.52 -7.05,-7.28 -3,-1.75 -6.5,-2.62 -10.5,-2.62 -4,0 -7.53,0.88 -10.58,2.62 -3.05,1.75 -5.43,4.2 -7.12,7.35 -1.7,3.15 -2.55,6.88 -2.55,11.17 v 3.6 c 0,4.4 0.98,8.28 2.92,11.62 1.95,3.35 4.7,5.9 8.25,7.65 3.55,1.75 7.73,2.62 12.53,2.62 4.3,0 8.07,-0.65 11.32,-1.95 3.25,-1.3 6.23,-3.25 8.93,-5.85 l 12.45,13.5 c -3.7,4.2 -8.35,7.42 -13.95,9.67 -5.6,2.25 -12.05,3.38 -19.35,3.38 z"
         fill="#272f74"
         stroke-width="0"
         id="path6" />
      <path
         d="m 363.13,912.81 c 6.4,0 12.12,1.28 17.17,3.83 5.05,2.55 9.02,6.45 11.93,11.7 2.9,5.25 4.35,11.98 4.35,20.17 v 46.2 h -23.4 v -42.6 c 0,-6.5 -1.42,-11.3 -4.27,-14.4 -2.85,-3.1 -6.88,-4.65 -12.08,-4.65 -3.7,0 -7.03,0.78 -9.97,2.33 -2.95,1.55 -5.25,3.93 -6.9,7.12 -1.65,3.2 -2.47,7.3 -2.47,12.3 v 39.9 h -23.4 v -80.7 h 22.35 v 22.35 l -4.2,-6.75 c 2.9,-5.4 7.05,-9.55 12.45,-12.45 5.4,-2.9 11.55,-4.35 18.45,-4.35 z"
         fill="#272f74"
         stroke-width="0"
         id="path7" />
      <path
         d="m 438.13,994.71 -33.9,-80.7 h 24.15 l 28.2,69.45 h -12 l 29.25,-69.45 h 22.5 l -34.05,80.7 z"
         fill="#272f74"
         stroke-width="0"
         id="path8" />
      <path
         d="m 505.93,994.71 v -80.7 h 23.4 v 80.7 z"
         fill="#272f74"
         stroke-width="0"
         id="path9" />
      <path
         d="m 578.23,995.91 c -6.9,0 -13.53,-0.83 -19.88,-2.48 -6.35,-1.65 -11.38,-3.72 -15.08,-6.22 l 7.8,-16.8 c 3.7,2.3 8.07,4.18 13.12,5.62 5.05,1.45 10.02,2.17 14.92,2.17 5.4,0 9.23,-0.65 11.48,-1.95 2.25,-1.3 3.38,-3.1 3.38,-5.4 0,-1.9 -0.88,-3.32 -2.62,-4.28 -1.75,-0.95 -4.08,-1.67 -6.98,-2.17 -2.9,-0.5 -6.07,-1 -9.52,-1.5 -3.45,-0.5 -6.93,-1.17 -10.42,-2.03 -3.5,-0.85 -6.7,-2.12 -9.6,-3.83 -2.9,-1.7 -5.23,-4 -6.97,-6.9 -1.75,-2.9 -2.62,-6.65 -2.62,-11.25 0,-5.1 1.47,-9.6 4.42,-13.5 2.95,-3.9 7.22,-6.98 12.83,-9.23 5.6,-2.25 12.3,-3.38 20.1,-3.38 5.5,0 11.1,0.6 16.8,1.8 5.7,1.2 10.45,2.95 14.25,5.25 l -7.8,16.65 c -3.9,-2.3 -7.83,-3.87 -11.77,-4.72 -3.95,-0.85 -7.78,-1.28 -11.48,-1.28 -5.2,0 -9,0.7 -11.4,2.1 -2.4,1.4 -3.6,3.2 -3.6,5.4 0,2 0.87,3.5 2.62,4.5 1.75,1 4.07,1.8 6.98,2.4 2.9,0.6 6.07,1.12 9.52,1.58 3.45,0.45 6.92,1.12 10.42,2.02 3.5,0.9 6.68,2.17 9.53,3.83 2.85,1.66 5.17,3.9 6.97,6.75 1.8,2.85 2.7,6.58 2.7,11.17 0,5 -1.5,9.43 -4.5,13.28 -3,3.85 -7.33,6.88 -12.97,9.08 -5.65,2.2 -12.53,3.3 -20.62,3.3 z"
         fill="#272f74"
         stroke-width="0"
         id="path10" />
      <path
         d="m 630.73,994.71 v -80.7 h 23.4 v 80.7 z"
         fill="#272f74"
         stroke-width="0"
         id="path11" />
      <path
         d="m 714.28,995.91 c -8.6,0 -16.23,-1.8 -22.88,-5.4 -6.65,-3.6 -11.9,-8.52 -15.75,-14.77 -3.85,-6.25 -5.78,-13.37 -5.78,-21.38 0,-8.01 1.92,-15.27 5.78,-21.53 3.85,-6.25 9.1,-11.15 15.75,-14.7 6.65,-3.55 14.27,-5.33 22.88,-5.33 8.61,0 16.1,1.78 22.8,5.33 6.7,3.55 11.95,8.43 15.75,14.62 3.8,6.2 5.7,13.4 5.7,21.6 0,8.2 -1.9,15.13 -5.7,21.38 -3.8,6.25 -9.05,11.17 -15.75,14.77 -6.7,3.6 -14.3,5.4 -22.8,5.4 z m 0,-19.2 c 3.9,0 7.4,-0.9 10.5,-2.7 3.1,-1.8 5.55,-4.37 7.35,-7.72 1.8,-3.35 2.7,-7.32 2.7,-11.92 0,-4.6 -0.9,-8.7 -2.7,-12 -1.8,-3.3 -4.25,-5.85 -7.35,-7.65 -3.1,-1.8 -6.6,-2.7 -10.5,-2.7 -3.9,0 -7.4,0.9 -10.5,2.7 -3.1,1.8 -5.58,4.35 -7.42,7.65 -1.85,3.3 -2.78,7.3 -2.78,12 0,4.7 0.92,8.58 2.78,11.92 1.85,3.35 4.32,5.92 7.42,7.72 3.1,1.8 6.6,2.7 10.5,2.7 z"
         fill="#272f74"
         stroke-width="0"
         id="path12" />
      <path
         d="m 823.18,912.81 c 6.4,0 12.12,1.28 17.18,3.83 5.05,2.55 9.02,6.45 11.92,11.7 2.9,5.25 4.35,11.98 4.35,20.17 v 46.2 h -23.4 v -42.6 c 0,-6.5 -1.43,-11.3 -4.28,-14.4 -2.85,-3.1 -6.88,-4.65 -12.08,-4.65 -3.7,0 -7.03,0.78 -9.97,2.33 -2.95,1.55 -5.25,3.93 -6.9,7.12 -1.65,3.2 -2.47,7.3 -2.47,12.3 v 39.9 h -23.4 v -80.7 h 22.35 v 22.35 l -4.2,-6.75 c 2.9,-5.4 7.05,-9.55 12.45,-12.45 5.4,-2.9 11.55,-4.35 18.45,-4.35 z"
         fill="#272f74"
         stroke-width="0"
         id="path13" />
    </g>
    <text
       transform="translate(432.19,1056.27)"
       fill="#c4c1ba"
       font-family="Montserrat-Bold, Montserrat"
       font-size="70px"
       font-weight="700"
       id="text13"><tspan
         x="0"
         y="0"
         id="tspan13">event</tspan></text>
  </g>
</svg>
