<svg id="Layer_1" data-name="Layer 1" xmlns="http://www.w3.org/2000/svg" viewBox="0 0 1083.82 879.52"><defs><style>.cls-1{font-size:112.59px;font-family:Tahoma-Bold, Tahoma;font-weight:700;}.cls-1,.cls-3,.cls-6{fill:#fff;}.cls-2{fill:#009ccc;}.cls-3,.cls-4{stroke:#1d1d1b;}.cls-3,.cls-4,.cls-5{stroke-miterlimit:10;}.cls-4,.cls-5{fill:none;}.cls-5{stroke:#203867;stroke-width:2px;}</style></defs><text class="cls-1" transform="translate(37.11 832.35)">ESPERANZA <tspan class="cls-2" x="709.59" y="0">CLUB</tspan></text><path class="cls-3" d="M832.31,281.41" transform="translate(-158.09 -317.31)"/><path class="cls-4" d="M678,487.83" transform="translate(-158.09 -317.31)"/><path class="cls-5" d="M673.37,740" transform="translate(-158.09 -317.31)"/><path class="cls-2" d="M1241.91,317.31l-32.47,85H833.9c-30.67,66.48-61.33,179-92,245.45H331c-7.52-10.23-12-49.86-12-63.53a61.5,61.5,0,0,1,4.62-23.47H678l19.77-47.16L770,317.31Z" transform="translate(-158.09 -317.31)"/><polygon class="cls-6" points="335.49 524.4 207.17 524.6 173.64 442.54 304.13 442.54 335.49 524.4"/><polygon class="cls-6" points="333.01 442.37 421.58 442.37 454.29 524.16 365.16 524.4 333.01 442.37"/><polygon class="cls-6" points="448.33 441.46 510.91 441.46 543.85 524.72 483.92 524.95 448.33 441.46"/><polygon class="cls-2" points="914.53 442.37 882.67 524.47 713.51 524.47 678.54 442.37 914.53 442.37"/><path class="cls-2" d="M385,599.31a73.44,73.44,0,1,1-5.49-27.92A73.1,73.1,0,0,1,385,599.31Z" transform="translate(-158.09 -317.31)"/><path class="cls-6" d="M842.26,841.71H731.18c-58.08-139-118.93-300.1-177-439.07H194.4l-36.31-84.77H624.83L725.77,555.55l1.76,4.36C759.74,638.2,810.05,763.42,842.26,841.71Z" transform="translate(-158.09 -317.31)"/><path class="cls-2" d="M1239.38,317.87" transform="translate(-158.09 -317.31)"/></svg>